G04 #@! TF.GenerationSoftware,KiCad,Pcbnew,(5.0.0-3-g5ebb6b6)*
G04 #@! TF.CreationDate,2018-11-21T14:18:23-05:00*
G04 #@! TF.ProjectId,itpower_current,6974706F7765725F63757272656E742E,rev?*
G04 #@! TF.SameCoordinates,Original*
G04 #@! TF.FileFunction,Copper,L1,Top,Signal*
G04 #@! TF.FilePolarity,Positive*
%FSLAX46Y46*%
G04 Gerber Fmt 4.6, Leading zero omitted, Abs format (unit mm)*
G04 Created by KiCad (PCBNEW (5.0.0-3-g5ebb6b6)) date Wednesday, November 21, 2018 at 02:18:23 PM*
%MOMM*%
%LPD*%
G01*
G04 APERTURE LIST*
G04 #@! TA.AperFunction,ComponentPad*
%ADD10R,2.400000X1.600000*%
G04 #@! TD*
G04 #@! TA.AperFunction,ComponentPad*
%ADD11O,2.400000X1.600000*%
G04 #@! TD*
G04 #@! TA.AperFunction,ComponentPad*
%ADD12R,2.000000X2.000000*%
G04 #@! TD*
G04 #@! TA.AperFunction,ComponentPad*
%ADD13O,2.000000X2.000000*%
G04 #@! TD*
G04 #@! TA.AperFunction,ComponentPad*
%ADD14C,2.400000*%
G04 #@! TD*
G04 #@! TA.AperFunction,ComponentPad*
%ADD15R,1.800000X1.800000*%
G04 #@! TD*
G04 #@! TA.AperFunction,ComponentPad*
%ADD16C,1.800000*%
G04 #@! TD*
G04 #@! TA.AperFunction,ComponentPad*
%ADD17R,1.700000X1.700000*%
G04 #@! TD*
G04 #@! TA.AperFunction,ComponentPad*
%ADD18O,1.700000X1.700000*%
G04 #@! TD*
G04 #@! TA.AperFunction,Conductor*
%ADD19C,0.250000*%
G04 #@! TD*
G04 APERTURE END LIST*
D10*
G04 #@! TO.P,U1,1*
G04 #@! TO.N,Net-(D3-Pad1)*
X37338000Y-40386000D03*
D11*
G04 #@! TO.P,U1,5*
G04 #@! TO.N,Net-(D3-Pad2)*
X29718000Y-32766000D03*
G04 #@! TO.P,U1,2*
G04 #@! TO.N,Net-(R2-Pad1)*
X37338000Y-37846000D03*
G04 #@! TO.P,U1,6*
G04 #@! TO.N,Net-(C1-Pad1)*
X29718000Y-35306000D03*
G04 #@! TO.P,U1,3*
G04 #@! TO.N,GND*
X37338000Y-35306000D03*
G04 #@! TO.P,U1,7*
G04 #@! TO.N,Net-(D4-Pad1)*
X29718000Y-37846000D03*
G04 #@! TO.P,U1,4*
G04 #@! TO.N,GND*
X37338000Y-32766000D03*
G04 #@! TO.P,U1,8*
G04 #@! TO.N,+5V*
X29718000Y-40386000D03*
G04 #@! TD*
D12*
G04 #@! TO.P,C1,1*
G04 #@! TO.N,Net-(C1-Pad1)*
X42672000Y-59944000D03*
D13*
G04 #@! TO.P,C1,2*
G04 #@! TO.N,GND*
X42672000Y-44944000D03*
G04 #@! TD*
D12*
G04 #@! TO.P,C2,1*
G04 #@! TO.N,+5V*
X53086000Y-59944000D03*
D13*
G04 #@! TO.P,C2,2*
G04 #@! TO.N,GND*
X53086000Y-44944000D03*
G04 #@! TD*
D12*
G04 #@! TO.P,D1,1*
G04 #@! TO.N,Net-(D1-Pad1)*
X17780000Y-15494000D03*
D13*
G04 #@! TO.P,D1,2*
G04 #@! TO.N,Net-(D1-Pad2)*
X27940000Y-15494000D03*
G04 #@! TD*
G04 #@! TO.P,D2,2*
G04 #@! TO.N,GND*
X27940000Y-26670000D03*
D12*
G04 #@! TO.P,D2,1*
G04 #@! TO.N,Net-(D2-Pad1)*
X17780000Y-26670000D03*
G04 #@! TD*
G04 #@! TO.P,D3,1*
G04 #@! TO.N,Net-(D3-Pad1)*
X17272000Y-42672000D03*
D13*
G04 #@! TO.P,D3,2*
G04 #@! TO.N,Net-(D3-Pad2)*
X17272000Y-32512000D03*
G04 #@! TD*
G04 #@! TO.P,D4,2*
G04 #@! TO.N,Net-(C1-Pad1)*
X23368000Y-32512000D03*
D12*
G04 #@! TO.P,D4,1*
G04 #@! TO.N,Net-(D4-Pad1)*
X23368000Y-42672000D03*
G04 #@! TD*
D14*
G04 #@! TO.P,R1,1*
G04 #@! TO.N,Net-(D1-Pad2)*
X37338000Y-18288000D03*
G04 #@! TO.P,R1,2*
G04 #@! TO.N,GND*
X37338000Y-23288000D03*
G04 #@! TD*
G04 #@! TO.P,R2,2*
G04 #@! TO.N,Net-(D1-Pad2)*
X48260000Y-18288000D03*
G04 #@! TO.P,R2,1*
G04 #@! TO.N,Net-(R2-Pad1)*
X48260000Y-23288000D03*
G04 #@! TD*
G04 #@! TO.P,R3,1*
G04 #@! TO.N,Net-(D3-Pad2)*
X17272000Y-48594000D03*
G04 #@! TO.P,R3,2*
G04 #@! TO.N,Net-(R2-Pad1)*
X17272000Y-53594000D03*
G04 #@! TD*
G04 #@! TO.P,R4,2*
G04 #@! TO.N,GND*
X17272000Y-61294000D03*
G04 #@! TO.P,R4,1*
G04 #@! TO.N,Net-(C1-Pad1)*
X17272000Y-66294000D03*
G04 #@! TD*
G04 #@! TO.P,R6,1*
G04 #@! TO.N,Net-(C1-Pad1)*
X27940000Y-66294000D03*
G04 #@! TO.P,R6,2*
G04 #@! TO.N,GND*
X27940000Y-61294000D03*
G04 #@! TD*
D15*
G04 #@! TO.P,D5,1*
G04 #@! TO.N,GND*
X33782000Y-61976000D03*
D16*
G04 #@! TO.P,D5,2*
G04 #@! TO.N,+5V*
X36322000Y-61976000D03*
G04 #@! TD*
D17*
G04 #@! TO.P,J2,1*
G04 #@! TO.N,+5V*
X37385001Y-67103001D03*
D18*
G04 #@! TO.P,J2,2*
G04 #@! TO.N,GND*
X37385001Y-69643001D03*
G04 #@! TO.P,J2,3*
G04 #@! TO.N,Net-(C1-Pad1)*
X37385001Y-72183001D03*
G04 #@! TD*
D17*
G04 #@! TO.P,J1,1*
G04 #@! TO.N,Net-(D1-Pad1)*
X14986000Y-19558000D03*
D18*
G04 #@! TO.P,J1,2*
G04 #@! TO.N,Net-(D2-Pad1)*
X14986000Y-22098000D03*
G04 #@! TD*
D19*
G04 #@! TO.N,*
X25908000Y-54356000D02*
X25908000Y-48768000D01*
X26924000Y-48768000D02*
X28448000Y-48768000D01*
X28448000Y-48768000D02*
X28448000Y-54102000D01*
X28448000Y-48768000D02*
X29972000Y-48768000D01*
X32258000Y-51308000D02*
X30734000Y-51308000D01*
X33020000Y-50546000D02*
X32258000Y-51308000D01*
X30734000Y-51308000D02*
X30734000Y-54102000D01*
X33020000Y-50546000D02*
X33020000Y-49530000D01*
X33020000Y-49530000D02*
X32258000Y-48768000D01*
X32258000Y-48768000D02*
X30734000Y-48768000D01*
X30734000Y-48768000D02*
X30734000Y-50800000D01*
G04 #@! TO.N,Net-(C1-Pad1)*
X29718000Y-35306000D02*
X23368000Y-35306000D01*
X23368000Y-35306000D02*
X23368000Y-32512000D01*
X17272000Y-66294000D02*
X27940000Y-66294000D01*
X27940000Y-66294000D02*
X29210000Y-67564000D01*
X42672000Y-58694000D02*
X42672000Y-59944000D01*
X54411001Y-46954999D02*
X42672000Y-58694000D01*
X33829001Y-72183001D02*
X29210000Y-67564000D01*
X37385001Y-72183001D02*
X33829001Y-72183001D01*
X57150000Y-61722000D02*
X57150000Y-49693998D01*
X57150000Y-49693998D02*
X54411001Y-46954999D01*
X46688999Y-72183001D02*
X57150000Y-61722000D01*
X37385001Y-72183001D02*
X46688999Y-72183001D01*
X48006000Y-20066000D02*
X48006000Y-20140588D01*
X23679990Y-24370992D02*
X23679990Y-20123990D01*
X23679990Y-20123990D02*
X23737980Y-20066000D01*
X23622000Y-24428982D02*
X23679990Y-24370992D01*
X23737980Y-20066000D02*
X48006000Y-20066000D01*
X23622000Y-29210000D02*
X23622000Y-24428982D01*
X33020000Y-35306000D02*
X33020000Y-29210000D01*
X33020000Y-29210000D02*
X23622000Y-29210000D01*
X29718000Y-35306000D02*
X33020000Y-35306000D01*
X48006000Y-20066000D02*
X54356000Y-20066000D01*
X54411001Y-27432000D02*
X54411001Y-46954999D01*
X54356000Y-27376999D02*
X54411001Y-27432000D01*
X54411001Y-20121001D02*
X54356000Y-20066000D01*
X54411001Y-26924000D02*
X54411001Y-20121001D01*
X54411001Y-26545589D02*
X54411001Y-26924000D01*
X54411001Y-26924000D02*
X54411001Y-27432000D01*
G04 #@! TO.N,GND*
X33956000Y-26670000D02*
X37338000Y-23288000D01*
X27940000Y-26670000D02*
X33956000Y-26670000D01*
X37338000Y-31716000D02*
X37338000Y-23288000D01*
X37338000Y-32766000D02*
X37338000Y-31716000D01*
X37338000Y-35306000D02*
X37338000Y-32766000D01*
X42672000Y-44944000D02*
X53086000Y-44944000D01*
X17272000Y-61294000D02*
X27940000Y-61294000D01*
X14789991Y-58811991D02*
X16072001Y-60094001D01*
X16072001Y-60094001D02*
X17272000Y-61294000D01*
X33782000Y-66040000D02*
X37385001Y-69643001D01*
X33782000Y-61976000D02*
X33782000Y-66040000D01*
X33100000Y-61294000D02*
X33782000Y-61976000D01*
X27940000Y-61294000D02*
X33100000Y-61294000D01*
X46434999Y-69643001D02*
X45972001Y-69643001D01*
X55626000Y-60452000D02*
X46434999Y-69643001D01*
X45972001Y-69643001D02*
X37385001Y-69643001D01*
X55626000Y-57912000D02*
X55626000Y-60452000D01*
X46990000Y-57912000D02*
X55626000Y-57912000D01*
X46990000Y-64262000D02*
X46990000Y-57912000D01*
X41346999Y-46269001D02*
X41346999Y-46283001D01*
X40640000Y-64262000D02*
X46990000Y-64262000D01*
X40640000Y-46990000D02*
X40640000Y-64262000D01*
X41346999Y-46283001D02*
X40640000Y-46990000D01*
X42672000Y-44944000D02*
X41346999Y-46269001D01*
X42672000Y-44944000D02*
X42672000Y-40894000D01*
X42672000Y-40894000D02*
X51562000Y-40894000D01*
X51562000Y-40894000D02*
X51562000Y-21082000D01*
X51562000Y-21082000D02*
X37592000Y-21082000D01*
X37338000Y-21336000D02*
X37338000Y-23288000D01*
X37592000Y-21082000D02*
X37338000Y-21336000D01*
G04 #@! TO.N,+5V*
X38863001Y-39325999D02*
X38863001Y-63109999D01*
X38798001Y-39260999D02*
X38863001Y-39325999D01*
X32293001Y-39260999D02*
X38798001Y-39260999D01*
X31168000Y-40386000D02*
X32293001Y-39260999D01*
X29718000Y-40386000D02*
X31168000Y-40386000D01*
X53086000Y-61194000D02*
X47176999Y-67103001D01*
X47176999Y-67103001D02*
X37385001Y-67103001D01*
X53086000Y-59944000D02*
X53086000Y-61194000D01*
X37385001Y-64587999D02*
X37385001Y-67103001D01*
X38863001Y-63109999D02*
X37385001Y-64587999D01*
X36322000Y-63524998D02*
X37385001Y-64587999D01*
X36322000Y-61976000D02*
X36322000Y-63524998D01*
G04 #@! TO.N,Net-(D1-Pad1)*
X17780000Y-19558000D02*
X17780000Y-15494000D01*
X14986000Y-19558000D02*
X17780000Y-19558000D01*
G04 #@! TO.N,Net-(D1-Pad2)*
X34544000Y-15494000D02*
X37338000Y-18288000D01*
X27940000Y-15494000D02*
X34544000Y-15494000D01*
X37338000Y-18288000D02*
X48260000Y-18288000D01*
G04 #@! TO.N,Net-(D2-Pad1)*
X17780000Y-22098000D02*
X17780000Y-26670000D01*
X14986000Y-22098000D02*
X17780000Y-22098000D01*
G04 #@! TO.N,Net-(D3-Pad1)*
X19847001Y-43997001D02*
X37282999Y-43997001D01*
X18522000Y-42672000D02*
X19847001Y-43997001D01*
X17272000Y-42672000D02*
X18522000Y-42672000D01*
X37338000Y-43942000D02*
X37338000Y-40386000D01*
X37282999Y-43997001D02*
X37338000Y-43942000D01*
G04 #@! TO.N,Net-(D3-Pad2)*
X19050000Y-30734000D02*
X17272000Y-32512000D01*
X26236000Y-30734000D02*
X19050000Y-30734000D01*
X28268000Y-32766000D02*
X26236000Y-30734000D01*
X29718000Y-32766000D02*
X28268000Y-32766000D01*
X17272000Y-32512000D02*
X12954000Y-32512000D01*
X12954000Y-32512000D02*
X12954000Y-48514000D01*
X13034000Y-48594000D02*
X17272000Y-48594000D01*
X12954000Y-48514000D02*
X13034000Y-48594000D01*
G04 #@! TO.N,Net-(D4-Pad1)*
X23368000Y-41422000D02*
X23368000Y-42672000D01*
X26944000Y-37846000D02*
X23368000Y-41422000D01*
X29718000Y-37846000D02*
X26944000Y-37846000D01*
G04 #@! TO.N,Net-(R2-Pad1)*
X37738000Y-37846000D02*
X37338000Y-37846000D01*
X35888000Y-37846000D02*
X37338000Y-37846000D01*
X20493018Y-36576000D02*
X20638008Y-36720990D01*
X34762990Y-36720990D02*
X35888000Y-37846000D01*
X20638008Y-36720990D02*
X34762990Y-36720990D01*
X14732000Y-36576000D02*
X20493018Y-36576000D01*
X21590000Y-46482000D02*
X14732000Y-46482000D01*
X21590000Y-53594000D02*
X21590000Y-46482000D01*
X14732000Y-46482000D02*
X14732000Y-36576000D01*
X17272000Y-53594000D02*
X21590000Y-53594000D01*
X48260000Y-23288000D02*
X48260000Y-27178000D01*
X48260000Y-27178000D02*
X48260000Y-36068000D01*
X48260000Y-27178000D02*
X48260000Y-27324000D01*
X48260000Y-36068000D02*
X46482000Y-37846000D01*
X46482000Y-37846000D02*
X37338000Y-37846000D01*
G04 #@! TD*
M02*
